<svg width="320" height="320" viewBox="0 0 320 320" fill="none" xmlns="http://www.w3.org/2000/svg">
<path fill-rule="evenodd" clip-rule="evenodd" d="M320 160C320 128.354 310.616 97.4208 293.035 71.1089C275.454 44.797 250.466 24.2892 221.229 12.1794C191.994 0.069293 159.823 -3.09913 128.785 3.07431C97.7497 9.24796 69.2399 24.4866 46.8634 46.8629C24.4869 69.2394 9.24854 97.7487 3.07468 128.785C-3.09918 159.823 0.0687425 191.994 12.1797 221.229C24.2906 250.466 44.7983 275.454 71.1087 293.035C97.4212 310.615 128.354 320 160 320C202.434 320 243.131 303.142 273.137 273.137C303.143 243.132 320 202.434 320 160ZM245.333 106.667L245.333 213.333C245.333 231.006 231.007 245.333 213.334 245.333L106.667 245.333C88.9945 245.333 74.6671 231.006 74.6671 213.333L74.6671 106.667C74.6671 88.9934 88.9945 74.6666 106.667 74.6666L213.334 74.6666C231.007 74.6666 245.333 88.9934 245.333 106.667Z" fill="black"/>
</svg>
